<?xml version="1.0" encoding="UTF-8"?>
<svg id="Layer_1" data-name="Layer 1" xmlns="http://www.w3.org/2000/svg" xmlns:xlink="http://www.w3.org/1999/xlink" viewBox="0 0 300 300">
  <defs>
    <style>
      .cls-1 {
        fill: url(#linear-gradient);
      }

      .cls-1, .cls-2 {
        stroke-width: 0px;
      }

      .cls-2 {
        fill: #fff;
      }
    </style>
    <linearGradient id="linear-gradient" x1="-48.62" y1="350.68" x2="-47.87" y2="350.68" gradientTransform="translate(-31227.98 101597.7) rotate(25) scale(300 -300)" gradientUnits="userSpaceOnUse">
      <stop offset="0" stop-color="#8e36de"/>
      <stop offset="1" stop-color="#f7cff5"/>
    </linearGradient>
  </defs>
  <rect class="cls-1" x="0" y="0" width="300" height="300" rx="150" ry="150"/>
  <path class="cls-2" d="m117.2,143.22v-47.55h-18.24v-2.24h38.87v2.24h-18.24v47.55h-2.39Zm86.03-49.79h2.44v49.79h-1.98l-35.36-45.37v45.37h-2.44v-49.79h1.98l35.36,45.37v-45.37Z"/>
  <g id="_802a35ea-8fff-41cd-9e6f-0800fe5a475a" data-name="802a35ea-8fff-41cd-9e6f-0800fe5a475a">
    <path class="cls-2" d="m189.43,228.56h-9.77l-13.2-13.2-.04-.04c-.91-.9-2.14-1.41-3.43-1.41h-25.27c-1.32,0-2.51.53-3.39,1.38l-.12.12-13.16,13.16h-9.77c-2.7,0-4.88,1.93-4.88,4.31v6.03c0,2.38,2.19,4.31,4.88,4.31h78.13c2.7,0,4.88-1.93,4.88-4.31v-6.03c0-2.38-2.19-4.31-4.88-4.31Z"/>
    <path class="cls-2" d="m228.49,47.89H72.24c-10.79,0-19.53,8.74-19.53,19.53v117.19c0,10.78,8.74,19.53,19.53,19.53h156.26c10.79,0,19.53-8.75,19.53-19.53v-117.19c0-10.79-8.74-19.53-19.53-19.53Zm-9.98,142.8c-3.29,0-5.96-2.67-5.97-5.96h0c0-3.3,2.67-5.97,5.97-5.97s5.97,2.67,5.97,5.97h0c0,3.29-2.67,5.97-5.96,5.97h0Zm9.98-25.6H72.24v-97.66h156.26v97.66Z"/>
  </g>
</svg>