<?xml version="1.0" encoding="utf-8"?>
<!-- Generator: Adobe Illustrator 28.0.0, SVG Export Plug-In . SVG Version: 6.00 Build 0)  -->
<svg version="1.1" id="Layer_1" xmlns="http://www.w3.org/2000/svg" xmlns:xlink="http://www.w3.org/1999/xlink" x="0px" y="0px"
	 viewBox="0 0 300 300" style="enable-background:new 0 0 300 300;" xml:space="preserve">
<style type="text/css">
	.st0{fill:url(#SVGID_1_);}
	.st1{fill:#FFFFFF;}
</style>
<linearGradient id="SVGID_1_" gradientUnits="userSpaceOnUse" x1="-48.6186" y1="350.6791" x2="-47.8659" y2="350.6791" gradientTransform="matrix(271.8923 126.7855 126.7855 -271.8923 -31227.9805 101597.6953)">
	<stop  offset="0" style="stop-color:#8E36DE"/>
	<stop  offset="1" style="stop-color:#F7CFF5"/>
</linearGradient>
<path class="st0" d="M150,0L150,0c82.8,0,150,67.2,150,150v0c0,82.8-67.2,150-150,150h0C67.2,300,0,232.8,0,150v0
	C0,67.2,67.2,0,150,0z"/>
<path class="st1" d="M117.2,143.2V95.7H99v-2.2h38.9v2.2h-18.2v47.6H117.2z M203.2,93.4h2.4v49.8h-2l-35.4-45.4v45.4h-2.4V93.4h2
	l35.4,45.4V93.4z"/>
<g id="_x38_02a35ea-8fff-41cd-9e6f-0800fe5a475a" transform="matrix(0.843483654942554,0,0,0.843483654942554,107.8258172528723,77.73872587930846)">
	<path class="st1" d="M96.7,178.8H85.2l-15.7-15.7l0,0c-1.1-1.1-2.5-1.7-4.1-1.7h-30c-1.6,0-3,0.6-4,1.6l-0.1,0.1l-15.6,15.6H4.1
		c-3.2,0-5.8,2.3-5.8,5.1v7.2c0,2.8,2.6,5.1,5.8,5.1h92.6c3.2,0,5.8-2.3,5.8-5.1v-7.2C102.5,181.1,99.9,178.8,96.7,178.8z"/>
	<path class="st1" d="M131.2,133.9"/>
	<path class="st1" d="M143.1-35.4H-42.2C-55-35.4-65.4-25-65.4-12.2v138.9c0,12.8,10.4,23.2,23.2,23.2h185.2
		c12.8,0,23.2-10.4,23.2-23.2V-12.2C166.2-25,155.8-35.4,143.1-35.4z M131.2,133.9c-3.9,0-7.1-3.2-7.1-7.1c0,0,0,0,0,0
		c0-3.9,3.2-7.1,7.1-7.1s7.1,3.2,7.1,7.1l0,0C138.3,130.7,135.1,133.9,131.2,133.9C131.2,133.9,131.2,133.9,131.2,133.9z
		 M143.1,103.6H-42.2V-12.2h185.2V103.6z"/>
</g>
</svg>
