<svg data-v-423bf9ae="" xmlns="http://www.w3.org/2000/svg" viewBox="0 0 369.89454172795905 185" class="iconAbove"><!----><!----><!----><g data-v-423bf9ae="" id="c7e222ab-f080-4be9-93e4-8a703a427d7d" fill="white" transform="matrix(5.7526364568010235,0,0,5.7526364568010235,-0.3451533669179696,105.93278304312773)"><path d="M3.65 13.55L3.65 4.19L0.06 4.19L0.06 3.75L7.71 3.75L7.71 4.19L4.12 4.19L4.12 13.55L3.65 13.55ZM15.32 9.86L15.32 9.98L8.95 9.98L8.95 9.98Q8.96 10.91 9.38 11.63L9.38 11.63L9.38 11.63Q9.80 12.36 10.54 12.77L10.54 12.77L10.54 12.77Q11.27 13.17 12.18 13.17L12.18 13.17L12.18 13.17Q12.92 13.17 13.55 12.90L13.55 12.90L13.55 12.90Q14.18 12.63 14.59 12.10L14.59 12.10L14.88 12.40L14.88 12.40Q14.39 12.98 13.69 13.29L13.69 13.29L13.69 13.29Q12.99 13.59 12.18 13.59L12.18 13.59L12.18 13.59Q11.12 13.59 10.28 13.13L10.28 13.13L10.28 13.13Q9.45 12.66 8.97 11.82L8.97 11.82L8.97 11.82Q8.50 10.98 8.50 9.91L8.50 9.91L8.50 9.91Q8.50 8.85 8.94 8.01L8.94 8.01L8.94 8.01Q9.38 7.17 10.16 6.70L10.16 6.70L10.16 6.70Q10.95 6.23 11.91 6.23L11.91 6.23L11.91 6.23Q12.87 6.23 13.64 6.69L13.64 6.69L13.64 6.69Q14.42 7.15 14.87 7.98L14.87 7.98L14.87 7.98Q15.32 8.81 15.32 9.86L15.32 9.86ZM11.91 6.65L11.91 6.65Q11.10 6.65 10.44 7.03L10.44 7.03L10.44 7.03Q9.79 7.41 9.39 8.08L9.39 8.08L9.39 8.08Q9.00 8.76 8.96 9.60L8.96 9.60L14.88 9.60L14.88 9.60Q14.83 8.76 14.43 8.08L14.43 8.08L14.43 8.08Q14.03 7.41 13.38 7.03L13.38 7.03L13.38 7.03Q12.73 6.65 11.91 6.65L11.91 6.65ZM20.38 13.59L20.38 13.59Q19.35 13.59 18.53 13.13L18.53 13.13L18.53 13.13Q17.71 12.66 17.24 11.82L17.24 11.82L17.24 11.82Q16.77 10.98 16.77 9.91L16.77 9.91L16.77 9.91Q16.77 8.85 17.24 8.01L17.24 8.01L17.24 8.01Q17.71 7.17 18.53 6.70L18.53 6.70L18.53 6.70Q19.35 6.23 20.38 6.23L20.38 6.23L20.38 6.23Q21.21 6.23 21.92 6.54L21.92 6.54L21.92 6.54Q22.62 6.86 23.07 7.48L23.07 7.48L22.72 7.77L22.72 7.77Q22.33 7.22 21.72 6.94L21.72 6.94L21.72 6.94Q21.11 6.66 20.38 6.66L20.38 6.66L20.38 6.66Q19.49 6.66 18.77 7.08L18.77 7.08L18.77 7.08Q18.05 7.49 17.64 8.22L17.64 8.22L17.64 8.22Q17.23 8.96 17.23 9.91L17.23 9.91L17.23 9.91Q17.23 10.86 17.64 11.61L17.64 11.61L17.64 11.61Q18.05 12.35 18.77 12.76L18.77 12.76L18.77 12.76Q19.49 13.17 20.38 13.17L20.38 13.17L20.38 13.17Q21.11 13.17 21.72 12.89L21.72 12.89L21.72 12.89Q22.33 12.61 22.72 12.07L22.72 12.07L23.07 12.35L23.07 12.35Q22.62 12.96 21.92 13.28L21.92 13.28L21.92 13.28Q21.21 13.59 20.38 13.59L20.38 13.59ZM28.71 6.23L28.71 6.23Q30.07 6.23 30.86 7.02L30.86 7.02L30.86 7.02Q31.64 7.81 31.64 9.28L31.64 9.28L31.64 13.55L31.18 13.55L31.18 9.31L31.18 9.31Q31.18 8.02 30.53 7.34L30.53 7.34L30.53 7.34Q29.88 6.66 28.67 6.66L28.67 6.66L28.67 6.66Q27.31 6.66 26.53 7.47L26.53 7.47L26.53 7.47Q25.75 8.27 25.75 9.63L25.75 9.63L25.75 13.55L25.28 13.55L25.28 3.16L25.75 3.16L25.75 8.02L25.75 8.02Q26.11 7.18 26.88 6.71L26.88 6.71L26.88 6.71Q27.65 6.23 28.71 6.23L28.71 6.23ZM42.25 3.75L42.73 3.75L42.73 13.55L42.34 13.55L35.38 4.62L35.38 13.55L34.90 13.55L34.90 3.75L35.29 3.75L42.25 12.68L42.25 3.75ZM52.07 9.86L52.07 9.98L45.70 9.98L45.70 9.98Q45.71 10.91 46.13 11.63L46.13 11.63L46.13 11.63Q46.55 12.36 47.28 12.77L47.28 12.77L47.28 12.77Q48.02 13.17 48.93 13.17L48.93 13.17L48.93 13.17Q49.67 13.17 50.30 12.90L50.30 12.90L50.30 12.90Q50.93 12.63 51.34 12.10L51.34 12.10L51.63 12.40L51.63 12.40Q51.14 12.98 50.44 13.29L50.44 13.29L50.44 13.29Q49.74 13.59 48.93 13.59L48.93 13.59L48.93 13.59Q47.87 13.59 47.03 13.13L47.03 13.13L47.03 13.13Q46.20 12.66 45.72 11.82L45.72 11.82L45.72 11.82Q45.25 10.98 45.25 9.91L45.25 9.91L45.25 9.91Q45.25 8.85 45.69 8.01L45.69 8.01L45.69 8.01Q46.13 7.17 46.91 6.70L46.91 6.70L46.91 6.70Q47.70 6.23 48.66 6.23L48.66 6.23L48.66 6.23Q49.62 6.23 50.39 6.69L50.39 6.69L50.39 6.69Q51.17 7.15 51.62 7.98L51.62 7.98L51.62 7.98Q52.07 8.81 52.07 9.86L52.07 9.86ZM48.66 6.65L48.66 6.65Q47.85 6.65 47.19 7.03L47.19 7.03L47.19 7.03Q46.54 7.41 46.14 8.08L46.14 8.08L46.14 8.08Q45.75 8.76 45.71 9.60L45.71 9.60L51.63 9.60L51.63 9.60Q51.58 8.76 51.18 8.08L51.18 8.08L51.18 8.08Q50.78 7.41 50.13 7.03L50.13 7.03L50.13 7.03Q49.48 6.65 48.66 6.65L48.66 6.65ZM56.10 13.59L56.10 13.59Q55.22 13.59 54.44 13.33L54.44 13.33L54.44 13.33Q53.66 13.06 53.23 12.63L53.23 12.63L53.45 12.26L53.45 12.26Q53.90 12.66 54.61 12.92L54.61 12.92L54.61 12.92Q55.31 13.19 56.11 13.19L56.11 13.19L56.11 13.19Q57.29 13.19 57.85 12.79L57.85 12.79L57.85 12.79Q58.41 12.39 58.41 11.68L58.41 11.68L58.41 11.68Q58.41 11.17 58.11 10.88L58.11 10.88L58.11 10.88Q57.81 10.58 57.36 10.44L57.36 10.44L57.36 10.44Q56.91 10.30 56.15 10.16L56.15 10.16L56.15 10.16Q55.27 10.00 54.75 9.82L54.75 9.82L54.75 9.82Q54.22 9.65 53.86 9.25L53.86 9.25L53.86 9.25Q53.49 8.86 53.49 8.16L53.49 8.16L53.49 8.16Q53.49 7.34 54.17 6.78L54.17 6.78L54.17 6.78Q54.85 6.23 56.15 6.23L56.15 6.23L56.15 6.23Q56.83 6.23 57.50 6.43L57.50 6.43L57.50 6.43Q58.17 6.64 58.59 6.97L58.59 6.97L58.35 7.34L58.35 7.34Q57.92 7.00 57.34 6.82L57.34 6.82L57.34 6.82Q56.76 6.65 56.14 6.65L56.14 6.65L56.14 6.65Q55.06 6.65 54.52 7.06L54.52 7.06L54.52 7.06Q53.97 7.48 53.97 8.15L53.97 8.15L53.97 8.15Q53.97 8.68 54.28 8.99L54.28 8.99L54.28 8.99Q54.59 9.30 55.04 9.44L55.04 9.44L55.04 9.44Q55.50 9.59 56.28 9.74L56.28 9.74L56.28 9.74Q57.12 9.90 57.64 10.07L57.64 10.07L57.64 10.07Q58.16 10.25 58.51 10.63L58.51 10.63L58.51 10.63Q58.87 11.00 58.87 11.68L58.87 11.68L58.87 11.68Q58.87 12.56 58.16 13.08L58.16 13.08L58.16 13.08Q57.44 13.59 56.10 13.59L56.10 13.59ZM64.12 12.75L64.36 13.09L64.36 13.09Q64.11 13.33 63.71 13.46L63.71 13.46L63.71 13.46Q63.32 13.59 62.90 13.59L62.90 13.59L62.90 13.59Q62.02 13.59 61.54 13.10L61.54 13.10L61.54 13.10Q61.05 12.60 61.05 11.73L61.05 11.73L61.05 6.69L59.68 6.69L59.68 6.29L61.05 6.29L61.05 4.69L61.52 4.69L61.52 6.29L63.91 6.29L63.91 6.69L61.52 6.69L61.52 11.66L61.52 11.66Q61.52 12.40 61.88 12.80L61.88 12.80L61.88 12.80Q62.24 13.19 62.94 13.19L62.94 13.19L62.94 13.19Q63.64 13.19 64.12 12.75L64.12 12.75Z"></path></g><!----><g data-v-423bf9ae="" id="55c94dbd-5ed2-4230-9982-d8e54b19999f" transform="matrix(1.1111111111111112,0,0,1.1111111111111112,129.44444444444446,0.44444444444444287)" stroke="none" fill="white"><path d="M70 92.5h-5l-6.759-6.76-.019-.018A2.491 2.491 0 0 0 56.467 85H43.529c-.675 0-1.285.271-1.734.705l-.059.059L35 92.5h-5c-1.381 0-2.5.988-2.5 2.206v3.088c0 1.218 1.119 2.206 2.5 2.206h40c1.381 0 2.5-.988 2.5-2.206v-3.088c0-1.218-1.119-2.206-2.5-2.206z"></path><path d="M84.889 66.999zM81.834 70.055zM84.889 73.109z"></path><path d="M90 0H10C4.477 0 0 4.477 0 10v60c0 5.521 4.477 10 10 10h80c5.523 0 10-4.479 10-10V10c0-5.523-4.477-10-10-10zm-5.111 73.109a3.053 3.053 0 0 1-3.055-3.055 3.054 3.054 0 1 1 6.11 0 3.054 3.054 0 0 1-3.055 3.055zM90 60H10V10h80v50z"></path></g><!----></svg>